<?xml version="1.0" encoding="UTF-8" standalone="no"?>
<!-- Created with Inkscape (http://www.inkscape.org/) -->

<svg
   xmlns:dc="http://purl.org/dc/elements/1.1/"
   xmlns:cc="http://creativecommons.org/ns#"
   xmlns:rdf="http://www.w3.org/1999/02/22-rdf-syntax-ns#"
   xmlns:svg="http://www.w3.org/2000/svg"
   xmlns="http://www.w3.org/2000/svg"
   xmlns:sodipodi="http://sodipodi.sourceforge.net/DTD/sodipodi-0.dtd"
   xmlns:inkscape="http://www.inkscape.org/namespaces/inkscape"
   width="177"
   height="147"
   viewBox="0 0 46.831249 38.89375"
   version="1.1"
   id="svg10324"
   inkscape:version="0.92.1 r15371"
   sodipodi:docname="rpm_4.svg">
  <defs
     id="defs10318" />
  <sodipodi:namedview
     id="base"
     pagecolor="#ffffff"
     bordercolor="#666666"
     borderopacity="1.0"
     inkscape:pageopacity="0.0"
     inkscape:pageshadow="2"
     inkscape:zoom="1.979899"
     inkscape:cx="125.39524"
     inkscape:cy="97.045151"
     inkscape:document-units="px"
     inkscape:current-layer="layer1"
     showgrid="false"
     units="px"
     inkscape:window-width="1366"
     inkscape:window-height="705"
     inkscape:window-x="-8"
     inkscape:window-y="-8"
     inkscape:window-maximized="1" />
  <metadata
     id="metadata10321">
    <rdf:RDF>
      <cc:Work
         rdf:about="">
        <dc:format>image/svg+xml</dc:format>
        <dc:type
           rdf:resource="http://purl.org/dc/dcmitype/StillImage" />
        <dc:title></dc:title>
      </cc:Work>
    </rdf:RDF>
  </metadata>
  <g
     inkscape:label="Layer 1"
     inkscape:groupmode="layer"
     id="layer1"
     transform="translate(0,-258.10624)">
    <path
       style="fill:#4d4d4d;fill-opacity:1;stroke:#ffffff;stroke-width:1;stroke-linecap:butt;stroke-linejoin:miter;stroke-miterlimit:4;stroke-dasharray:none;stroke-opacity:1"
       d="M 0.95811828,279.39479 18.634559,296.26197 c 6.292891,-6.59291 15.226234,-12.61958 27.793135,-16.85168 l -6.327778,-20.545 c -0.948274,0.21075 -1.851879,0.39558 -2.88613,0.65009 -1.771306,0.43588 -3.498665,0.9088 -5.181595,1.41852 -1.68293,0.50971 -3.321256,1.05596 -4.915463,1.63917 -1.594209,0.58322 -3.144185,1.20346 -4.649329,1.85984 -1.505142,0.65638 -2.965393,1.34921 -4.381125,2.07843 -1.415736,0.72921 -2.786952,1.49478 -4.11293,2.2965 -1.325975,0.80171 -2.606784,1.63965 -3.842659,2.51354 -1.2358735,0.87388 -2.4269645,1.78331 -3.5723915,2.72903 -1.145426,0.94572 -2.245423,1.9273 -3.300057,2.94452 -0.801327,0.7729 -1.5513829,1.58585 -2.30011822,2.39986 z"
       id="path9618"
       inkscape:connector-curvature="0" />
  </g>
</svg>
