<?xml version="1.0" encoding="UTF-8" standalone="no"?>
<!-- Created with Inkscape (http://www.inkscape.org/) -->

<svg
   xmlns:osb="http://www.openswatchbook.org/uri/2009/osb"
   xmlns:dc="http://purl.org/dc/elements/1.1/"
   xmlns:cc="http://creativecommons.org/ns#"
   xmlns:rdf="http://www.w3.org/1999/02/22-rdf-syntax-ns#"
   xmlns:svg="http://www.w3.org/2000/svg"
   xmlns="http://www.w3.org/2000/svg"
   xmlns:sodipodi="http://sodipodi.sourceforge.net/DTD/sodipodi-0.dtd"
   xmlns:inkscape="http://www.inkscape.org/namespaces/inkscape"
   width="800"
   height="450"
   viewBox="0 0 211.66666 119.0625"
   version="1.1"
   id="svg8"
   inkscape:version="0.92.1 r15371"
   sodipodi:docname="screen.svg">
  <defs
     id="defs2">
    <linearGradient
       id="linearGradient7583"
       osb:paint="solid">
      <stop
         style="stop-color:#333333;stop-opacity:1;"
         offset="0"
         id="stop7581" />
    </linearGradient>
    <marker
       inkscape:stockid="DotS"
       orient="auto"
       refY="0"
       refX="0"
       id="DotS"
       style="overflow:visible"
       inkscape:isstock="true">
      <path
         id="path5938"
         d="m -2.5,-1 c 0,2.76 -2.24,5 -5,5 -2.76,0 -5,-2.24 -5,-5 0,-2.76 2.24,-5 5,-5 2.76,0 5,2.24 5,5 z"
         style="fill:#000000;fill-opacity:1;fill-rule:evenodd;stroke:#000000;stroke-width:1.00000003pt;stroke-opacity:1"
         transform="matrix(0.2,0,0,0.2,1.48,0.2)"
         inkscape:connector-curvature="0" />
    </marker>
    <marker
       inkscape:stockid="DotL"
       orient="auto"
       refY="0"
       refX="0"
       id="DotL"
       style="overflow:visible"
       inkscape:isstock="true">
      <path
         id="path5932"
         d="m -2.5,-1 c 0,2.76 -2.24,5 -5,5 -2.76,0 -5,-2.24 -5,-5 0,-2.76 2.24,-5 5,-5 2.76,0 5,2.24 5,5 z"
         style="fill:#000000;fill-opacity:1;fill-rule:evenodd;stroke:#000000;stroke-width:1.00000003pt;stroke-opacity:1"
         transform="matrix(0.8,0,0,0.8,5.92,0.8)"
         inkscape:connector-curvature="0" />
    </marker>
    <marker
       inkscape:stockid="CurveIn"
       orient="auto"
       refY="0"
       refX="0"
       id="CurveIn"
       style="overflow:visible"
       inkscape:isstock="true">
      <path
         id="path6055"
         d="m 4.625493,-5.0456926 c -2.76,0 -5.00000002,2.24 -5.00000002,5.00000002 0,2.75999998 2.24000002,4.99999998 5.00000002,4.99999998"
         style="fill:none;fill-rule:evenodd;stroke:#000000;stroke-width:1.00000003pt;stroke-opacity:1"
         transform="scale(0.6)"
         inkscape:connector-curvature="0" />
    </marker>
    <marker
       inkscape:stockid="DotS"
       orient="auto"
       refY="0"
       refX="0"
       id="DotS-3"
       style="overflow:visible"
       inkscape:isstock="true">
      <path
         inkscape:connector-curvature="0"
         id="path5938-5"
         d="m -2.5,-1 c 0,2.76 -2.24,5 -5,5 -2.76,0 -5,-2.24 -5,-5 0,-2.76 2.24,-5 5,-5 2.76,0 5,2.24 5,5 z"
         style="fill:#000000;fill-opacity:1;fill-rule:evenodd;stroke:#000000;stroke-width:1.00000003pt;stroke-opacity:1"
         transform="matrix(0.2,0,0,0.2,1.48,0.2)" />
    </marker>
    <marker
       inkscape:stockid="DotS"
       orient="auto"
       refY="0"
       refX="0"
       id="marker6373"
       style="overflow:visible"
       inkscape:isstock="true">
      <path
         inkscape:connector-curvature="0"
         id="path6371"
         d="m -2.5,-1 c 0,2.76 -2.24,5 -5,5 -2.76,0 -5,-2.24 -5,-5 0,-2.76 2.24,-5 5,-5 2.76,0 5,2.24 5,5 z"
         style="fill:#000000;fill-opacity:1;fill-rule:evenodd;stroke:#000000;stroke-width:1.00000003pt;stroke-opacity:1"
         transform="matrix(0.2,0,0,0.2,1.48,0.2)" />
    </marker>
  </defs>
  <sodipodi:namedview
     id="base"
     pagecolor="#ffffff"
     bordercolor="#666666"
     borderopacity="1.0"
     inkscape:pageopacity="0.0"
     inkscape:pageshadow="2"
     inkscape:zoom="0.7"
     inkscape:cx="430.92539"
     inkscape:cy="186.86043"
     inkscape:document-units="px"
     inkscape:current-layer="layer1"
     showgrid="false"
     units="px"
     inkscape:window-width="1366"
     inkscape:window-height="705"
     inkscape:window-x="-8"
     inkscape:window-y="-8"
     inkscape:window-maximized="1"
     showguides="true"
     inkscape:guide-bbox="true"
     inkscape:lockguides="true" />
  <metadata
     id="metadata5">
    <rdf:RDF>
      <cc:Work
         rdf:about="">
        <dc:format>image/svg+xml</dc:format>
        <dc:type
           rdf:resource="http://purl.org/dc/dcmitype/StillImage" />
        <dc:title></dc:title>
      </cc:Work>
    </rdf:RDF>
  </metadata>
  <g
     inkscape:label="Layer 1"
     inkscape:groupmode="layer"
     id="layer1"
     transform="translate(0,-177.93749)">
    <rect
       style="fill:#ffffff;fill-opacity:1;stroke:#000000;stroke-width:0.27073342;stroke-opacity:1"
       id="rect4485"
       width="7.4835467"
       height="14.551627"
       x="34.16349"
       y="405.39236" />
    <text
       xml:space="preserve"
       style="font-style:normal;font-variant:normal;font-weight:bold;font-stretch:normal;font-size:6.3499999px;line-height:1.25;font-family:ARIAL;-inkscape-font-specification:'ARIAL Bold';letter-spacing:0px;word-spacing:0px;fill:#111111;fill-opacity:1;stroke:none;stroke-width:0.26458332"
       x="44.05246"
       y="419.944"
       id="text4489"><tspan
         sodipodi:role="line"
         id="tspan4487"
         x="44.05246"
         y="419.944"
         style="font-style:normal;font-variant:normal;font-weight:bold;font-stretch:normal;font-size:6.3499999px;font-family:ARIAL;-inkscape-font-specification:'ARIAL Bold';fill:#111111;fill-opacity:1;stroke-width:0.26458332">ACC</tspan></text>
    <text
       xml:space="preserve"
       style="font-style:normal;font-variant:normal;font-weight:bold;font-stretch:normal;font-size:6.3499999px;line-height:1.25;font-family:ARIAL;-inkscape-font-specification:'ARIAL Bold';letter-spacing:0px;word-spacing:0px;fill:#111111;fill-opacity:1;stroke:none;stroke-width:0.26458332"
       x="79.021355"
       y="419.27676"
       id="text4489-7"><tspan
         sodipodi:role="line"
         id="tspan4487-8"
         x="79.021355"
         y="419.27676"
         style="font-style:normal;font-variant:normal;font-weight:bold;font-stretch:normal;font-size:6.3499999px;font-family:ARIAL;-inkscape-font-specification:'ARIAL Bold';fill:#111111;fill-opacity:1;stroke-width:0.26458332">AF</tspan></text>
    <rect
       style="fill:#ffffff;fill-opacity:1;stroke:#000000;stroke-width:0.26458332;stroke-opacity:1"
       id="rect4485-2"
       width="7.4835467"
       height="13.898015"
       x="69.977623"
       y="406.04596" />
    <text
       xml:space="preserve"
       style="font-style:normal;font-variant:normal;font-weight:bold;font-stretch:normal;font-size:6.3499999px;line-height:1.25;font-family:ARIAL;-inkscape-font-specification:'ARIAL Bold';letter-spacing:0px;word-spacing:0px;fill:#111111;fill-opacity:1;stroke:none;stroke-width:0.26458332"
       x="115.56081"
       y="418.74222"
       id="text4489-7-1"><tspan
         sodipodi:role="line"
         id="tspan4487-8-9"
         x="115.56081"
         y="418.74222"
         style="font-style:normal;font-variant:normal;font-weight:bold;font-stretch:normal;font-size:6.3499999px;font-family:ARIAL;-inkscape-font-specification:'ARIAL Bold';fill:#111111;fill-opacity:1;stroke-width:0.26458332">MAF</tspan></text>
    <rect
       style="fill:#ffffff;fill-opacity:1;stroke:#000000;stroke-width:0.26458332;stroke-opacity:1"
       id="rect4485-2-6"
       width="7.4835467"
       height="13.898015"
       x="104.9296"
       y="405.51141" />
    <text
       xml:space="preserve"
       style="font-style:normal;font-variant:normal;font-weight:bold;font-stretch:normal;font-size:6.3499999px;line-height:1.25;font-family:ARIAL;-inkscape-font-specification:'ARIAL Bold';letter-spacing:0px;word-spacing:0px;fill:#111111;fill-opacity:1;stroke:none;stroke-width:0.26458332"
       x="160.92151"
       y="419.52795"
       id="text4489-7-16"><tspan
         sodipodi:role="line"
         id="tspan4487-8-5"
         x="160.92151"
         y="419.52795"
         style="font-style:normal;font-variant:normal;font-weight:bold;font-stretch:normal;font-size:6.3499999px;font-family:ARIAL;-inkscape-font-specification:'ARIAL Bold';fill:#111111;fill-opacity:1;stroke-width:0.26458332">TPC</tspan></text>
    <rect
       style="fill:#ffffff;fill-opacity:1;stroke:#000000;stroke-width:0.26458332;stroke-opacity:1"
       id="rect4485-2-66"
       width="7.4835467"
       height="13.898015"
       x="151.87778"
       y="406.29715" />
    <text
       xml:space="preserve"
       style="font-style:normal;font-weight:normal;font-size:9.87777805px;line-height:1.25;font-family:sans-serif;letter-spacing:0px;word-spacing:0px;fill:#000000;fill-opacity:1;stroke:none;stroke-width:0.26458332"
       x="43.507179"
       y="412.47116"
       id="text4578"><tspan
         sodipodi:role="line"
         id="tspan4576"
         x="43.507179"
         y="412.47116"
         style="font-style:normal;font-variant:normal;font-weight:bold;font-stretch:normal;font-size:9.87777805px;font-family:'Open Sans';-inkscape-font-specification:'Open Sans Bold';stroke-width:0.26458332">0</tspan></text>
    <text
       xml:space="preserve"
       style="font-style:normal;font-weight:normal;font-size:9.87777805px;line-height:1.25;font-family:sans-serif;letter-spacing:0px;word-spacing:0px;fill:#000000;fill-opacity:1;stroke:none;stroke-width:0.26458332"
       x="77.97316"
       y="413.08508"
       id="text4578-4"><tspan
         sodipodi:role="line"
         id="tspan4576-6"
         x="77.97316"
         y="413.08508"
         style="font-style:normal;font-variant:normal;font-weight:bold;font-stretch:normal;font-size:9.87777805px;font-family:'Open Sans';-inkscape-font-specification:'Open Sans Bold';stroke-width:0.26458332">100</tspan></text>
    <rect
       style="fill:#676765;fill-opacity:0.71823204;stroke:#000000;stroke-width:0.18995063;stroke-opacity:1"
       id="rect4485-2-67"
       width="7.5305443"
       height="7.1185322"
       x="69.942513"
       y="412.83734" />
    <text
       xml:space="preserve"
       style="font-style:normal;font-weight:normal;font-size:9.87777805px;line-height:1.25;font-family:sans-serif;letter-spacing:0px;word-spacing:0px;fill:#000000;fill-opacity:1;stroke:none;stroke-width:0.26458332"
       x="115.30862"
       y="412.73108"
       id="text4578-4-4"><tspan
         sodipodi:role="line"
         id="tspan4576-6-3"
         x="115.30862"
         y="412.73108"
         style="font-style:normal;font-variant:normal;font-weight:bold;font-stretch:normal;font-size:9.87777805px;font-family:'Open Sans';-inkscape-font-specification:'Open Sans Bold';stroke-width:0.26458332">0.075</tspan></text>
    <text
       xml:space="preserve"
       style="font-style:normal;font-weight:normal;font-size:9.87777805px;line-height:1.25;font-family:sans-serif;letter-spacing:0px;word-spacing:0px;fill:#000000;fill-opacity:1;stroke:none;stroke-width:0.26458332"
       x="160.35197"
       y="413.54095"
       id="text4578-4-4-2"><tspan
         sodipodi:role="line"
         id="tspan4576-6-3-4"
         x="160.35197"
         y="413.54095"
         style="font-style:normal;font-variant:normal;font-weight:bold;font-stretch:normal;font-size:9.87777805px;font-family:'Open Sans';-inkscape-font-specification:'Open Sans Bold';stroke-width:0.26458332">0.14</tspan></text>
    <g
       id="g7551"
       transform="translate(-23.75951,139.35778)">
      <rect
         ry="0.50956744"
         rx="0.29106954"
         y="272.51971"
         x="223.55832"
         height="12"
         width="12"
         id="rect7547"
         style="opacity:1;fill:#cccccc;fill-opacity:1;stroke:none;stroke-width:0.70826256;stroke-miterlimit:4;stroke-dasharray:none;stroke-opacity:1" />
      <path
         sodipodi:nodetypes="ccc"
         inkscape:connector-curvature="0"
         id="path4657"
         d="m 226.67937,281.40926 5.79763,-0.0759 -0.0854,-5.73509"
         style="opacity:1;fill:none;stroke:#000000;stroke-width:0.70264566;stroke-linecap:butt;stroke-linejoin:miter;stroke-miterlimit:4;stroke-dasharray:none;stroke-opacity:1" />
    </g>
    <text
       xml:space="preserve"
       style="font-style:normal;font-weight:normal;font-size:9.87777805px;line-height:1.25;font-family:sans-serif;letter-spacing:0px;word-spacing:0px;fill:#000000;fill-opacity:1;stroke:none;stroke-width:0.26458332"
       x="179.01443"
       y="389.64767"
       id="text4578-4-8"><tspan
         sodipodi:role="line"
         id="tspan4576-6-0"
         x="179.01443"
         y="389.64767"
         style="font-style:normal;font-variant:normal;font-weight:bold;font-stretch:normal;font-size:9.87777805px;font-family:'Open Sans';-inkscape-font-specification:'Open Sans Bold';stroke-width:0.26458332">168°F</tspan></text>
    <path
       inkscape:connector-curvature="0"
       style="opacity:1;fill:#000000;fill-opacity:0;stroke:#000000;stroke-width:0.80088538;stroke-miterlimit:4;stroke-dasharray:none;stroke-opacity:1"
       d="m 190.62422,362.45292 c -0.36669,0 -0.66198,0.40207 -0.66198,0.90183 v 9.95053 a 5.2994872,3.8876543 0 0 0 -2.73471,3.39694 5.2994872,3.8876543 0 0 0 5.29993,3.88769 5.2994872,3.8876543 0 0 0 5.29942,-3.88769 5.2994872,3.8876543 0 0 0 -2.73472,-3.40062 v -9.94685 c 0,-0.49976 -0.29529,-0.90183 -0.66197,-0.90183 z"
       id="path5809" />
    <ellipse
       style="opacity:1;fill:#0d0000;fill-opacity:1;stroke:#000000;stroke-width:1.09730351;stroke-miterlimit:4;stroke-dasharray:none;stroke-opacity:1"
       id="path5817"
       cx="192.58109"
       cy="376.71921"
       rx="3.5176218"
       ry="2.5380764" />
    <rect
       style="opacity:1;fill:#0d0000;fill-opacity:1;stroke:#000000;stroke-width:0.72433096;stroke-miterlimit:4;stroke-dasharray:none;stroke-opacity:1"
       id="rect5827"
       width="4.120419"
       height="0.91079587"
       x="196.21869"
       y="365.58597"
       rx="0.48591074"
       ry="0.69016546" />
    <rect
       style="opacity:1;fill:#0d0000;fill-opacity:1;stroke:#000000;stroke-width:0.72433096;stroke-miterlimit:4;stroke-dasharray:none;stroke-opacity:1"
       id="rect5827-5"
       width="4.120419"
       height="0.91079587"
       x="196.21869"
       y="367.57874"
       rx="0.48591074"
       ry="0.69016546" />
    <rect
       style="opacity:1;fill:#0d0000;fill-opacity:1;stroke:#000000;stroke-width:0.72433096;stroke-miterlimit:4;stroke-dasharray:none;stroke-opacity:1"
       id="rect5827-50"
       width="4.120419"
       height="0.91079587"
       x="196.21869"
       y="369.5715"
       rx="0.48591074"
       ry="0.69016546" />
    <g
       id="g7545"
       transform="translate(6.6577535,125.40063)"
       style="fill:#f9f9f9">
      <g
         id="g7510"
         transform="translate(63.610148,-15.501633)"
         style="fill:#f9f9f9">
        <path
           id="rect7450"
           transform="matrix(0.26458333,0,0,0.26458333,-37.952273,170.53453)"
           d="m 599.08984,181.5 c -1.01742,0 -1.83789,0.67619 -1.83789,1.51562 0,0.83944 0.82047,1.51563 1.83789,1.51563 h 3.90235 c 1.01742,0 1.83593,-0.67619 1.83593,-1.51563 0,-0.83943 -0.81851,-1.51562 -1.83593,-1.51562 z m 40.65821,0 c -1.01743,0 -1.83594,0.67619 -1.83594,1.51562 0,0.83944 0.81851,1.51563 1.83594,1.51563 h 3.90234 c 1.01743,0 1.83789,-0.67619 1.83789,-1.51563 0,-0.83943 -0.82046,-1.51562 -1.83789,-1.51562 z m -47.91211,4.21484 c -1.01743,0 -1.83594,1.16232 -1.83594,2.60743 v 30.49804 c 0,1.44511 0.81851,2.60742 1.83594,2.60742 h 60.61328 c 1.01743,0 1.83594,-1.16231 1.83594,-2.60742 v -30.49804 c 0,-1.44511 -0.81851,-2.60743 -1.83594,-2.60743 z"
           style="opacity:1;fill:#f9f9f9;fill-opacity:1;stroke:#000000;stroke-width:4.02519703;stroke-miterlimit:4;stroke-dasharray:none;stroke-opacity:1"
           inkscape:connector-curvature="0" />
        <path
           inkscape:connector-curvature="0"
           id="path7474"
           d="m 120.53319,222.96097 2.93996,0.0668"
           style="fill:#f9f9f9;stroke:#000000;stroke-width:1.06500006;stroke-linecap:butt;stroke-linejoin:miter;stroke-miterlimit:4;stroke-dasharray:none;stroke-opacity:1" />
        <path
           inkscape:connector-curvature="0"
           id="path7474-6"
           d="m 130.01589,223.12801 2.93996,0.0668"
           style="fill:#f9f9f9;stroke:#000000;stroke-width:1.06500006;stroke-linecap:butt;stroke-linejoin:miter;stroke-miterlimit:4;stroke-dasharray:none;stroke-opacity:1" />
        <path
           inkscape:connector-curvature="0"
           id="path7474-6-3"
           d="m 131.45245,221.62461 -0.0668,2.93996"
           style="fill:#f9f9f9;stroke:#000000;stroke-width:1.06500006;stroke-linecap:butt;stroke-linejoin:miter;stroke-miterlimit:4;stroke-dasharray:none;stroke-opacity:1" />
      </g>
    </g>
    <text
       xml:space="preserve"
       style="font-style:normal;font-weight:normal;font-size:9.87777805px;line-height:1.25;font-family:sans-serif;letter-spacing:0px;word-spacing:0px;fill:#000000;fill-opacity:1;stroke:none;stroke-width:0.26458332"
       x="179.39578"
       y="349.48969"
       id="text4578-4-8-0"><tspan
         sodipodi:role="line"
         id="tspan4576-6-0-2"
         x="179.39578"
         y="349.48969"
         style="font-style:normal;font-variant:normal;font-weight:bold;font-stretch:normal;font-size:9.87777805px;font-family:'Open Sans';-inkscape-font-specification:'Open Sans Bold';stroke-width:0.26458332">12      .2v</tspan></text>
    <text
       xml:space="preserve"
       style="font-style:normal;font-weight:normal;font-size:10.58333302px;line-height:1.25;font-family:sans-serif;letter-spacing:0px;word-spacing:0px;fill:#000000;fill-opacity:1;stroke:none;stroke-width:0.26458332"
       x="59.34763"
       y="362.15115"
       id="text7555"><tspan
         sodipodi:role="line"
         id="tspan7553"
         x="59.34763"
         y="362.15115"
         style="stroke-width:0.26458332"><tspan
   style="font-style:normal;font-variant:normal;font-weight:bold;font-stretch:normal;font-size:25.39999962px;font-family:sans-serif;-inkscape-font-specification:'sans-serif Bold';fill:#0044aa"
   id="tspan7557">0.0</tspan>MPH</tspan></text>
    <text
       xml:space="preserve"
       style="font-style:normal;font-weight:normal;font-size:10.58333302px;line-height:1.25;font-family:sans-serif;letter-spacing:0px;word-spacing:0px;fill:#000000;fill-opacity:1;stroke:none;stroke-width:0.26458332"
       x="60.859539"
       y="373.86844"
       id="text7567"><tspan
         sodipodi:role="line"
         id="tspan7565"
         x="60.859539"
         y="373.86844"
         style="stroke-width:0.26458332"><tspan
   style="font-style:normal;font-variant:normal;font-weight:bold;font-stretch:normal;font-family:sans-serif;-inkscape-font-specification:'sans-serif Bold'"
   id="tspan9087">0</tspan><tspan
   style="font-size:6.3499999px"
   id="tspan9081">RPM</tspan> <tspan
   style="fill:#cccccc;stroke:#af9697;stroke-opacity:1"
   id="tspan9033">|</tspan> <tspan
   style="font-style:normal;font-variant:normal;font-weight:bold;font-stretch:normal;font-family:sans-serif;-inkscape-font-specification:'sans-serif Bold'"
   id="tspan9089">20</tspan>°<tspan
   style="font-size:6.3499999px"
   id="tspan9083">TDC</tspan></tspan></text>
    <rect
       style="fill:#ffffff;fill-opacity:1;stroke:#000000;stroke-width:0.21840657;stroke-opacity:1"
       id="rect4485-2-6-4"
       width="7.4877548"
       height="9.46488"
       x="179.27753"
       y="329.51273" />
    <text
       xml:space="preserve"
       style="font-style:normal;font-weight:normal;font-size:10.58333302px;line-height:1.25;font-family:sans-serif;letter-spacing:0px;word-spacing:0px;fill:#000000;fill-opacity:1;stroke:none;stroke-width:0.26458332"
       x="61.237511"
       y="341.36249"
       id="text9132"><tspan
         sodipodi:role="line"
         id="tspan9130"
         x="61.237511"
         y="341.36249"
         style="font-size:6.3499999px;stroke-width:0.26458332"><tspan
   style="font-style:normal;font-variant:normal;font-weight:bold;font-stretch:normal;font-family:sans-serif;-inkscape-font-specification:'sans-serif Bold'"
   id="tspan9136">MAX</tspan>: 0MPH</tspan></text>
    <path
       style="fill:#4d4d4d;fill-opacity:1;stroke:#ffffff;stroke-width:0.96997499;stroke-linecap:butt;stroke-linejoin:miter;stroke-miterlimit:4;stroke-dasharray:none;stroke-opacity:1"
       d="m 18.332214,268.74652 -18.16373557,0.13222 0.0888956,28.12406 H 18.213858 Z"
       id="path9546"
       inkscape:connector-curvature="0" />
    <path
       style="fill:#4d4d4d;fill-opacity:1;stroke:#ffffff;stroke-width:0.96997499;stroke-linecap:butt;stroke-linejoin:miter;stroke-miterlimit:4;stroke-dasharray:none;stroke-opacity:1"
       d="m 19.247533,240.1018 -19.17415272,-1.32519 0.09509845,30.10213 18.16373527,-0.13222 0.07081,-16.90079 c 0,0 -0.478874,-4.87099 0.844513,-11.74393 z"
       id="path9549"
       inkscape:connector-curvature="0" />
    <path
       style="fill:#4d4d4d;fill-opacity:1;stroke:#ffffff;stroke-width:0.96997499;stroke-linecap:butt;stroke-linejoin:miter;stroke-miterlimit:4;stroke-dasharray:none;stroke-opacity:1"
       d="m 0.03875218,227.85717 0.0346279,10.91944 19.17415292,1.32519 c 1.44548,-7.50701 5.121139,-17.47669 14.161346,-26.38518 L 16.102061,198.18381 c -0.834365,0.78048 -1.660522,1.56699 -2.435856,2.39079 -0.96363,1.02386 -1.881576,2.08101 -2.75371,3.17151 -0.872133,1.0905 -1.6984613,2.21449 -2.4787524,3.37131 -0.7802909,1.15682 -1.5146582,2.34682 -2.2027609,3.56965 -0.6881027,1.22283 -1.3296506,2.47849 -1.9252196,3.76702 -0.5955688,1.28852 -1.1449884,2.60951 -1.6476777,3.96342 -0.5026892,1.3539 -0.9591215,2.74035 -1.3685855,4.15932 -0.40946408,1.41897 -0.77204959,2.87054 -1.08794289,4.35426 -0.0592434,0.27827 -0.10575376,0.63208 -0.16280383,0.92608 z"
       id="path9607"
       inkscape:connector-curvature="0" />
    <path
       style="fill:#4d4d4d;fill-opacity:1;stroke:#ffffff;stroke-width:0.96997499;stroke-linecap:butt;stroke-linejoin:miter;stroke-miterlimit:4;stroke-dasharray:none;stroke-opacity:1"
       d="m 15.729937,197.84936 17.678942,15.86726 c 6.293782,-6.20207 15.228389,-11.87147 27.797068,-15.85268 l -6.328674,-19.32706 c -0.948408,0.19826 -1.852141,0.37213 -2.886538,0.61155 -1.771555,0.41004 -3.49916,0.85493 -5.182328,1.33443 -1.683168,0.47949 -3.321724,0.99336 -4.916159,1.542 -1.594434,0.54864 -3.144629,1.13211 -4.649986,1.74958 -1.505356,0.61747 -2.965814,1.26923 -4.381746,1.95522 -1.415936,0.68598 -2.787346,1.40617 -4.113512,2.16036 -1.326163,0.75418 -2.607153,1.54245 -3.843202,2.36453 -1.236049,0.82208 -2.427308,1.67759 -3.572897,2.56725 -1.145588,0.88966 -2.245741,1.81305 -3.300524,2.76997 -0.801441,0.72708 -1.551603,1.49183 -2.300444,2.25759 z"
       id="path9618"
       inkscape:connector-curvature="0" />
    <path
       style="fill:#4d4d4d;fill-opacity:1;stroke:#ffffff;stroke-width:0.96997499;stroke-linecap:butt;stroke-linejoin:miter;stroke-miterlimit:4;stroke-dasharray:none;stroke-opacity:1"
       d="m 90.676019,177.53156 -35.798746,1.00532 6.328674,19.32706 c 8.409828,-2.66387 18.444364,-4.57275 30.452064,-5.35715 z"
       id="path9561"
       inkscape:connector-curvature="0"
       sodipodi:nodetypes="ccccc" />
    <path
       style="fill:#4d4d4d;fill-opacity:1;stroke:#ffffff;stroke-width:0.96997499;stroke-linecap:butt;stroke-linejoin:miter;stroke-miterlimit:4;stroke-dasharray:none;stroke-opacity:1"
       d="M 122.79488,177.53156 H 90.676019 l 0.981992,14.97523 c 3.966779,-0.25913 8.146945,-0.39668 12.557599,-0.39668 5.39815,0 12.23914,-0.0576 18.57824,-0.0933 z"
       id="path9564"
       inkscape:connector-curvature="0" />
    <path
       style="fill:#ff6600;fill-opacity:1;stroke:#ffffff;stroke-width:0.96997499;stroke-linecap:butt;stroke-linejoin:miter;stroke-miterlimit:4;stroke-dasharray:none;stroke-opacity:1"
       d="m 151.97914,177.53156 h -29.18426 l -0.001,14.48521 c 9.56164,-0.054 19.12718,-0.18006 29.18426,-0.27903 z"
       id="path9567"
       inkscape:connector-curvature="0" />
    <path
       style="fill:#ff0000;fill-opacity:1;stroke:#ffffff;stroke-width:0.96997499;stroke-linecap:butt;stroke-linejoin:miter;stroke-miterlimit:4;stroke-dasharray:none;stroke-opacity:1"
       d="m 182.18416,177.53156 h -30.20502 l -0.001,14.20618 c 15.42923,-0.15185 18.91901,-0.21045 30.20502,-0.34564 z"
       id="path9570"
       inkscape:connector-curvature="0" />
    <path
       style="fill:#ff0000;fill-opacity:1;stroke:#ffffff;stroke-width:0.93602592;stroke-linecap:butt;stroke-linejoin:miter;stroke-miterlimit:4;stroke-dasharray:none;stroke-opacity:1"
       d="m 182.18416,177.53156 -0.001,13.86054 c 11.40631,-0.13663 30.527,-0.34905 30.527,-0.34905 l 0.31312,-13.51149 z"
       id="path9085-3"
       inkscape:connector-curvature="0"
       sodipodi:nodetypes="ccccc" />
    <path
       style="fill:#ff0000;stroke:none;stroke-width:0.26458332px;stroke-linecap:butt;stroke-linejoin:miter;stroke-opacity:1"
       d="m 30.510728,315.74638 c -8.092712,-0.087 -41.955578,-0.23771 -41.955578,-0.23771 l 0.122473,41.21402 c 0.31827,-1.02174 0.631277,-2.04665 0.998389,-3.03702 0.5165225,-1.39345 1.0823235,-2.75797 1.6991225,-4.09898 0.616797,-1.341 1.284296,-2.65854 2.00556,-3.95841 0.721268,-1.29987 1.496034,-2.58192 2.325958,-3.85196 0.829923,-1.27004 1.715461,-2.5281 2.6582348,-3.77961 0.67575598,-0.89706 1.38014598,-1.77477 2.11304998,-2.63292 0.73290402,-0.85815 1.49411002,-1.69692 2.28306402,-2.51561 0.788955,-0.81868 1.605556,-1.61758 2.449463,-2.39623 0.843907,-0.77865 1.714999,-1.53675 2.612761,-2.2748 0.897761,-0.73805 1.82244,-1.45596 2.7729567,-2.15284 0.950517,-0.69688 1.926844,-1.37264 2.92902,-2.02778 1.002176,-0.65514 2.03028,-1.28938 3.083016,-1.90221 1.052736,-0.61284 2.130162,-1.20461 3.232361,-1.77457 1.102198,-0.56996 2.229076,-1.11834 3.379638,-1.64486 1.150563,-0.52652 2.324954,-1.0311 3.522782,-1.51361 1.197829,-0.4825 2.418829,-0.94286 3.662826,-1.38079 0.03431,-0.0121 0.07055,-0.0221 0.104903,-0.0341 z"
       id="path9629"
       inkscape:connector-curvature="0" />
    <rect
       style="opacity:1;fill:#ff6600;fill-opacity:1;stroke:none;stroke-width:1;stroke-miterlimit:4;stroke-dasharray:none;stroke-opacity:1"
       id="rect10263"
       width="30.616072"
       height="25.324406"
       x="253.58765"
       y="330.26865" />
    <flowRoot
       xml:space="preserve"
       id="flowRoot10292"
       style="font-style:normal;font-weight:normal;font-size:40px;line-height:1.25;font-family:sans-serif;letter-spacing:0px;word-spacing:0px;fill:#000000;fill-opacity:1;stroke:none"
       transform="matrix(0.26458333,0,0,0.26458333,0,169.99999)"><flowRegion
         id="flowRegion10294"><rect
           id="rect10296"
           width="241.42857"
           height="68.571426"
           x="488.57144"
           y="795.71429" /></flowRegion><flowPara
         id="flowPara10298"> </flowPara></flowRoot>  </g>
</svg>
